<?xml version="1.0" encoding="utf-8"?>
<!-- Generator: Adobe Illustrator 22.1.0, SVG Export Plug-In . SVG Version: 6.00 Build 0)  -->
<svg version="1.1" id="svg3152" xmlns:svg="http://www.w3.org/2000/svg"
	 xmlns="http://www.w3.org/2000/svg" xmlns:xlink="http://www.w3.org/1999/xlink" x="0px" y="0px" viewBox="0 0 54.9 58.2"
	 style="enable-background:new 0 0 54.9 58.2;" xml:space="preserve">
<style type="text/css">
	.st0{fill:#019966;}
	.st1{fill:#FFFFFF;}
</style>
<path id="path2681" class="st0" d="M0,58.2h54.9V0H0V58.2z"/>
<path id="path2683" class="st1" d="M39.9,52.4V37.7h2.6v8.1l4.1-4.4h3l-4.2,4.8l5,6.2h-3.1l-4.8-5.9v5.9L39.9,52.4"/>
<path id="path2685" class="st1" d="M14.9,46.2c-0.4-0.7-1-1.3-1.7-1.7c0.2-0.2,0.4-0.4,0.6-0.6c1-1,1-3.1,0.3-4.2
	c-0.8-1.4-2.2-2.3-4.7-2.4l-4.5,0.1V47v5.4h2.5c0-1.7,0-3.7,0-5.4v-1.1h2.7c0.2,0,0.4,0,0.6,0.1c0.6,0.1,1.1,0.4,1.5,0.8
	c0.4,0.6,0.7,1.7,0.3,2.4c-0.4,0.8-1.3,1.3-2.3,1.3H7.5l0.7,2h2.1c1.8,0.1,3.3-0.7,4.3-1.9C15.5,49.5,15.5,47.4,14.9,46.2z
	 M7.5,39.4h2c0,0,2.8-0.2,2.8,1.9c0,0,0.2,2.2-1.8,2.5c-0.1,0-0.2,0-0.2,0H7.5V39.4"/>
<path id="path2687" class="st1" d="M36.2,46.2v6.3h2.6v-6.4c-0.1-5.2-5.1-4.7-5.1-4.7c-0.6,0-1.3,0.1-1.9,0.5
	c-0.3,1.1-0.4,2.2-0.7,3.2L31,45.3v-3.9h-2.6v11H31v-6.1v-0.1c0-0.3,0.1-0.7,0.3-0.9c0.4-0.8,1.3-1.4,2.2-1.4
	C33.4,43.8,36.2,43.5,36.2,46.2"/>
<path id="path2689" class="st1" d="M27.3,47c0.1-3.2-2.5-5.7-5.7-5.7c-3.1,0-5.7,2.5-5.7,5.7c0,3.2,2.5,5.7,5.7,5.7
	c0.8,0,1.6-0.2,2.3-0.5c0.2-1.1,0.7-3.3,0.7-3.3v2.4v0.5v0.7h2.6v-4.7L27.3,47z M21.6,50.1c-1.7,0-3.2-1.4-3.2-3.2
	c0-1.8,1.4-3.2,3.2-3.2c1.7,0,3.2,1.4,3.2,3.2C24.8,48.7,23.4,50.1,21.6,50.1"/>
<path id="path2691" class="st1" d="M33.1,29.7c-0.5,1.8-1.8,3.9-4,4.4c-0.9,0.2-2.2,0.5-3.6,0.4v-2.8c1.3,0,2.8-0.1,3.7-1.3
	c0.7-0.8,0.9-1.7,1.1-2.7l0.1-0.3c0.1-0.6,0.3-1.3,0.4-2.2l0,0l0,0v-0.4c0.4-3.8,0.9-7.7,5.1-8.5c1.3-0.2,2.4-0.2,3.5-0.2V19
	c-1.2-0.1-2.7-0.1-3.7,0.9c-0.6,0.6-1,1.4-1.2,2.5L34,25.2v0.1L33.1,29.7"/>
<path id="path2693" class="st1" d="M22.4,16.2c-3.8,0-6.9,2.9-6.9,6.6c0,0.1,0,11.7,0,11.7h3.1v-10l1.1,4.4c0.8,0.3,1.8,0.5,2.7,0.5
	c3.8,0,6.9-2.9,6.9-6.6C29.3,19.1,26.2,16.2,22.4,16.2z M22.4,26.3c-2.1,0-3.8-1.6-3.8-3.6s1.7-3.6,3.8-3.6s3.8,1.6,3.8,3.6
	C26.2,24.7,24.5,26.3,22.4,26.3"/>
<path id="path2695" class="st1" d="M46.1,16.2v10L45,21.8c-0.8-0.3-1.8-0.5-2.7-0.5c-3.8,0-6.9,2.9-6.9,6.6c0,3.6,3.1,6.6,6.9,6.6
	c3.8,0,6.9-2.9,6.9-6.6c0-0.1,0-11.7,0-11.7S46.1,16.2,46.1,16.2z M42.3,31.5c-2.1,0-3.8-1.6-3.8-3.6s1.7-3.6,3.8-3.6
	s3.8,1.6,3.8,3.6C46.1,29.9,44.4,31.5,42.3,31.5"/>
<path id="path2697" class="st1" d="M4.8,26.2c0.7-9.6,10-17.5,22.4-18.3c7.4-0.5,14.3,1.6,19.3,5.4l1.5-2.7
	C42.6,6.9,35.2,5,27.6,5.8C14.5,7,4.9,15.9,4.6,26.2C4.6,26.2,4.7,26.3,4.8,26.2"/>
</svg>
