<?xml version="1.0" encoding="utf-8"?>
<!-- Generator: Adobe Illustrator 22.1.0, SVG Export Plug-In . SVG Version: 6.00 Build 0)  -->
<svg version="1.1" id="Ebene_1" xmlns="http://www.w3.org/2000/svg" xmlns:xlink="http://www.w3.org/1999/xlink" x="0px" y="0px"
	 viewBox="0 0 277.7 50" style="enable-background:new 0 0 277.7 50;" xml:space="preserve">
<style type="text/css">
	.st0{fill:#FFFFFF;}
</style>
<g>
	<path class="st0" d="M189.1,11.7c-0.5-0.4-1.1-0.7-1.7-0.7c-0.9,0-1.4,0.5-1.4,1.4c0,0.7,0.4,1.2,1.3,1.2
		C188.2,13.6,188.6,12.9,189.1,11.7 M194,12.4c0-0.9-0.5-1.5-1.4-1.5c-1,0-1.3,0.9-1.9,2.3c0.5,0.5,1.1,0.9,1.8,0.9
		C193.4,14.1,194,13.3,194,12.4 M193.8,29.8c0-0.9-0.8-1.5-3.8-1.5c-3.1,0-3.7,0.7-3.7,1.5c0,0.9,0.7,1.5,3.7,1.5
		S193.8,30.6,193.8,29.8 M195.8,29.8c0,2.4-2,4-5.8,4s-5.7-1.6-5.7-4s1.9-4,5.7-4C193.7,25.8,195.8,27.4,195.8,29.8 M187,22.2v2.1
		h-1.6c-0.2-1.2-0.5-2-1-2.8v-1.9h9v-2.1h2.1v7.1h-2.1v-2.4C193.4,22.2,187,22.2,187,22.2z M195.8,12.4c0,2.2-1.2,3.9-3,3.9
		c-1.3,0-2.2-0.8-2.7-1.9H190c-0.6,0.9-1.5,1.5-2.6,1.5c-1.9,0-3.1-1.5-3.1-3.6c0-2,1.2-3.4,3-3.4c1.1,0,1.9,0.7,2.4,1.5h0.1
		c0.6-1.1,1.4-1.9,2.9-1.9C194.4,8.5,195.8,10.1,195.8,12.4 M184.2,39c0-2.2,1.4-3.7,3.5-3.7c1.9,0,3.9,1.8,5.8,3.6
		c-0.1-0.6-0.1-1.3-0.1-1.9v-2.2h2.2v7.8h-1.5c-2.7-2.8-4.6-4.8-6.2-4.8c-1.1,0-1.7,0.6-1.7,1.6c0,0.8,0.5,1.4,1.1,2l-1.3,1.3
		C184.8,41.6,184.2,40.6,184.2,39 M200,5h-20v40.8h20V5z"/>
	<path class="st0" d="M266.4,45.8h7.3v-2.5h-4.3v-8.9h-3V45.8z M262.2,45.8h3.2L262,34.4h-3.6l-3.5,11.4h3.1l0.6-2.4h3.2L262.2,45.8
		z M259,41.1l0.2-0.8c0.3-1.1,0.6-2.5,0.8-3.6h0.1c0.3,1.1,0.6,2.5,0.8,3.6l0.2,0.8H259z M248.7,45.8h3.6l3.4-11.4h-3.1l-1.2,5
		c-0.3,1.2-0.5,2.4-0.8,3.6h-0.1c-0.3-1.2-0.5-2.4-0.8-3.6l-1.2-5h-3.2L248.7,45.8z M241.4,45.8h3V34.4h-3V45.8z M234.1,45.8h3V37h3
		v-2.5h-9V37h3V45.8z M221.6,44.4c1.2,1.1,2.9,1.6,4.3,1.6c2.8,0,4.5-1.7,4.5-3.6c0-1.6-0.8-2.6-2.2-3.1l-1.4-0.5
		c-1-0.4-1.7-0.6-1.7-1.1s0.5-0.8,1.2-0.8c0.8,0,1.5,0.3,2.3,0.8l1.5-1.9c-1.1-1-2.5-1.5-3.8-1.5c-2.5,0-4.2,1.6-4.2,3.5
		c0,1.6,1.1,2.7,2.3,3.2l1.4,0.6c1,0.4,1.5,0.6,1.5,1.1s-0.4,0.8-1.3,0.8c-0.8,0-1.9-0.5-2.7-1.1L221.6,44.4z M212.8,45.8h7.5v-2.5
		h-4.5v-2h3.7v-2.5h-3.7V37h4.3v-2.5h-7.4v11.3H212.8z M203.8,45.8h3v-4.2h3.8v-2.5h-3.8V37h4.4v-2.5h-7.4
		C203.8,34.5,203.8,45.8,203.8,45.8z"/>
	<path class="st0" d="M255.2,31.2h7.3v-2.5h-4.3v-8.9h-3V31.2z M251,31.2h3.2l-3.5-11.4h-3.6l-3.5,11.4h3.1l0.6-2.4h3.2L251,31.2z
		 M247.8,26.4l0.2-0.8c0.3-1.1,0.6-2.5,0.8-3.6h0.1c0.3,1.1,0.6,2.5,0.8,3.6l0.2,0.8H247.8z M238.4,31.2h3v-8.9h3v-2.5h-9v2.5h3
		V31.2z M231.1,31.2h3V19.8h-3V31.2z M219.5,25.5c0,3.9,2.6,5.8,5.7,5.8c1.6,0,3.1-0.7,3.9-1.4v-5.4h-4.3V27h1.7v1.6
		c-0.2,0.1-0.6,0.2-0.9,0.2c-2,0-3-1.2-3-3.3s1.2-3.3,2.7-3.3c0.9,0,1.4,0.3,2,0.8l1.6-1.9c-0.8-0.8-2-1.5-3.6-1.5
		C222.1,19.5,219.5,21.7,219.5,25.5 M214.8,31.2h3V19.8h-3V31.2z M206.9,28.7v-6.6h0.1c1.6,0,2.9,0.6,2.9,3.2s-1.3,3.3-2.9,3.3h-0.1
		V28.7z M203.8,31.2h3.5c3.3,0,5.7-1.7,5.7-5.7s-2.4-5.6-5.9-5.6h-3.4v11.3H203.8z"/>
	<path class="st0" d="M269.3,12.8c-1,0-1.8-0.8-1.8-2s0.8-2,1.8-2s1.8,0.7,1.8,2C271.1,12,270.3,12.8,269.3,12.8 M265.8,18.1
		c0,1.5,1.4,2.3,3.5,2.3c2.6,0,4.3-1.4,4.3-2.9c0-1.4-1-2-3-2H269c-1.2,0-1.5-0.4-1.5-0.9s0.2-0.8,0.5-1c0.4,0.2,0.9,0.3,1.3,0.3
		c1.7,0,3.1-1.1,3.1-3c0-0.7-0.3-1.4-0.7-1.8h1.8V8h-3c-0.3-0.1-0.7-0.2-1.2-0.2c-1.7,0-3.2,1.2-3.2,3c0,1,0.5,1.8,1.1,2.3v0.1
		c-0.4,0.3-0.9,0.9-0.9,1.6c0,0.7,0.3,1.1,0.8,1.4v0.1C266.2,16.7,265.8,17.4,265.8,18.1 M267,17.9c0-0.5,0.3-1,0.9-1.4
		c0.4,0.1,0.8,0.1,1.1,0.1h1.5c1.1,0,1.7,0.3,1.7,1.1c0,0.9-1.1,1.7-2.7,1.7C268,19.4,267,18.8,267,17.9 M260.1,16.5h1.4V11
		c0.6-1.4,1.4-2,2.2-2c0.3,0,0.5,0.1,0.8,0.1l0.3-1.3c-0.3-0.1-0.5-0.2-0.9-0.2c-1,0-1.8,0.7-2.4,1.8h-0.1L261.3,8h-1.2
		C260.1,8,260.1,16.5,260.1,16.5z M251.9,11.6c0.2-1.7,1.3-2.7,2.5-2.7c1.3,0,2.1,1,2.1,2.7H251.9z M250.5,12.2
		c0,2.8,1.8,4.5,4.1,4.5c1.2,0,2.1-0.4,2.8-0.9l-0.5-0.9c-0.6,0.4-1.3,0.7-2.1,0.7c-1.6,0-2.7-1.2-2.8-3h5.7c0-0.2,0.1-0.5,0.1-0.8
		c0-2.4-1.2-4-3.4-4C252.4,7.8,250.5,9.5,250.5,12.2 M242.5,14.6v-4.5c0.9-0.7,1.6-1.1,2.3-1.1c1.6,0,2.2,1.3,2.2,3.1
		c0,2.1-1,3.4-2.4,3.4C244.1,15.5,243.3,15.2,242.5,14.6 M241.1,16.5h1.2l0.1-0.8h0.1c0.8,0.7,1.6,1.1,2.4,1.1
		c1.9,0,3.7-1.7,3.7-4.6c0-2.6-1.2-4.3-3.4-4.3c-0.9,0-1.9,0.5-2.7,1.2V7.6V4h-1.4C241.1,4,241.1,16.5,241.1,16.5z M231.4,16.5h1.4
		v-6.2c0.9-0.8,1.5-1.3,2.4-1.3c1.1,0,1.6,0.7,1.6,2.3v5.2h1.4v-5.4c0-2.2-0.8-3.3-2.6-3.3c-1.2,0-2,0.6-2.9,1.4h-0.1l0-1.2h-1.2
		C231.4,8,231.4,16.5,231.4,16.5z M225,16.5h1.4V11c0.6-1.4,1.4-2,2.2-2c0.3,0,0.5,0.1,0.8,0.1l0.3-1.3c-0.3-0.1-0.5-0.2-0.9-0.2
		c-1,0-1.8,0.7-2.4,1.8h-0.1L226.2,8H225V16.5z M220.2,6.2c0.5,0,0.9-0.4,0.9-0.9s-0.4-0.9-0.9-0.9s-0.9,0.4-0.9,0.9
		C219.4,5.8,219.7,6.2,220.2,6.2 M217.2,6.2c0.5,0,0.9-0.4,0.9-0.9s-0.4-0.9-0.9-0.9s-0.9,0.4-0.9,0.9S216.7,6.2,217.2,6.2
		 M215.3,13.4c0,2.2,0.8,3.3,2.6,3.3c1.2,0,2-0.6,2.8-1.5h0.1l0.1,1.3h1.1V8h-1.4v6c-0.8,1-1.4,1.4-2.3,1.4c-1.1,0-1.6-0.7-1.6-2.3
		V8h-1.5v5.4H215.3z M204.1,16.5h1.4v-6c0-1.2-0.1-2.4-0.2-3.6h0.1l1.2,2.4l4.2,7.2h1.5V5h-1.4v5.9c0,1.2,0.1,2.5,0.2,3.7H211
		l-1.2-2.4L205.6,5h-1.5V16.5z"/>
</g>
<g>
	<path class="st0" d="M12.6,24.2h-1.1l-4.3-6.6v6.6H6.1v-8.5h1.1l4.3,6.6v-6.6h1.1V24.2z"/>
	<path class="st0" d="M17.1,24.4c-0.9,0-1.6-0.3-2.1-0.8s-0.8-1.3-0.8-2.3v-0.2c0-0.6,0.1-1.2,0.4-1.7s0.6-0.9,1-1.2
		s0.9-0.4,1.4-0.4c0.8,0,1.5,0.3,1.9,0.8s0.7,1.3,0.7,2.3v0.5h-4.3c0,0.6,0.2,1.1,0.5,1.5s0.8,0.6,1.3,0.6c0.4,0,0.7-0.1,1-0.2
		s0.5-0.4,0.7-0.6l0.7,0.5C18.9,24,18.1,24.4,17.1,24.4z M16.9,18.7c-0.4,0-0.8,0.2-1.1,0.5s-0.5,0.8-0.6,1.3h3.2v-0.1
		c0-0.6-0.2-1-0.4-1.3S17.4,18.7,16.9,18.7z"/>
	<path class="st0" d="M26.4,22.8l1.2-4.8h1.1l-1.8,6.3H26l-1.5-4.8l-1.5,4.8h-0.9l-1.8-6.3h1.1l1.2,4.7l1.5-4.7h0.9L26.4,22.8z"/>
	<path class="st0" d="M34.8,21.6l0.2,1.1l0.2-1l1.7-6h0.9l1.6,6l0.2,1l0.2-1.1l1.3-5.8h1.1l-2.1,8.5h-1L37.5,18l-0.1-0.7L37.2,18
		l-1.8,6.2h-1l-2.1-8.5h1.1L34.8,21.6z"/>
	<path class="st0" d="M43,21c0-0.6,0.1-1.2,0.4-1.7s0.6-0.9,1-1.1s0.9-0.4,1.5-0.4c0.9,0,1.6,0.3,2.1,0.9s0.8,1.4,0.8,2.4v0.1
		c0,0.6-0.1,1.2-0.4,1.7s-0.6,0.9-1,1.1s-0.9,0.4-1.5,0.4c-0.9,0-1.6-0.3-2.1-0.9S43,22.1,43,21L43,21z M44.1,21.1
		c0,0.7,0.2,1.3,0.5,1.7s0.8,0.6,1.3,0.6c0.6,0,1-0.2,1.3-0.6s0.5-1,0.5-1.8c0-0.7-0.2-1.3-0.5-1.7s-0.8-0.6-1.3-0.6
		c-0.5,0-1,0.2-1.3,0.6S44.1,20.4,44.1,21.1z"/>
	<path class="st0" d="M53.2,18.9c-0.2,0-0.3,0-0.5,0c-0.7,0-1.2,0.3-1.4,0.9v4.5h-1.1v-6.3h1.1l0,0.7c0.4-0.6,0.9-0.8,1.5-0.8
		c0.2,0,0.4,0,0.5,0.1V18.9z"/>
	<path class="st0" d="M55.9,21.3L55.2,22v2.2h-1.1v-9h1.1v5.4l0.6-0.7l2-2.1h1.3l-2.5,2.6l2.8,3.7h-1.3L55.9,21.3z"/>
	<path class="st0" d="M65.2,21.6l0.2,1.1l0.2-1l1.7-6h0.9l1.6,6l0.2,1l0.2-1.1l1.3-5.8h1.1l-2.1,8.5h-1L67.9,18l-0.1-0.7L67.7,18
		l-1.8,6.2h-1l-2.1-8.5h1.1L65.2,21.6z"/>
	<path class="st0" d="M76.3,24.4c-0.9,0-1.6-0.3-2.1-0.8s-0.8-1.3-0.8-2.3v-0.2c0-0.6,0.1-1.2,0.4-1.7s0.6-0.9,1-1.2
		s0.9-0.4,1.4-0.4c0.8,0,1.5,0.3,1.9,0.8s0.7,1.3,0.7,2.3v0.5h-4.3c0,0.6,0.2,1.1,0.5,1.5s0.8,0.6,1.3,0.6c0.4,0,0.7-0.1,1-0.2
		s0.5-0.4,0.7-0.6l0.7,0.5C78.2,24,77.4,24.4,76.3,24.4z M76.2,18.7c-0.4,0-0.8,0.2-1.1,0.5s-0.5,0.8-0.6,1.3h3.2v-0.1
		c0-0.6-0.2-1-0.4-1.3S76.6,18.7,76.2,18.7z"/>
	<path class="st0" d="M82.7,24.4c-0.9,0-1.6-0.3-2.1-0.8s-0.8-1.3-0.8-2.3v-0.2c0-0.6,0.1-1.2,0.4-1.7s0.6-0.9,1-1.2
		s0.9-0.4,1.4-0.4c0.8,0,1.5,0.3,1.9,0.8s0.7,1.3,0.7,2.3v0.5h-4.3c0,0.6,0.2,1.1,0.5,1.5s0.8,0.6,1.3,0.6c0.4,0,0.7-0.1,1-0.2
		s0.5-0.4,0.7-0.6l0.7,0.5C84.5,24,83.7,24.4,82.7,24.4z M82.5,18.7c-0.4,0-0.8,0.2-1.1,0.5s-0.5,0.8-0.6,1.3H84v-0.1
		c0-0.6-0.2-1-0.4-1.3S83,18.7,82.5,18.7z"/>
	<path class="st0" d="M88.2,21.3L87.5,22v2.2h-1.1v-9h1.1v5.4l0.6-0.7l2-2.1h1.3l-2.5,2.6l2.8,3.7h-1.3L88.2,21.3z"/>
	<path class="st0" d="M95.4,16.2c0-0.2,0.1-0.3,0.2-0.4s0.3-0.2,0.5-0.2s0.4,0.1,0.5,0.2s0.2,0.3,0.2,0.4s-0.1,0.3-0.2,0.4
		s-0.3,0.2-0.5,0.2s-0.4-0.1-0.5-0.2S95.4,16.4,95.4,16.2z M96.6,24.2h-1.1v-6.3h1.1V24.2z"/>
	<path class="st0" d="M102,22.6c0-0.3-0.1-0.5-0.3-0.7s-0.6-0.3-1.2-0.4s-1-0.3-1.3-0.4s-0.6-0.4-0.7-0.6s-0.2-0.5-0.2-0.8
		c0-0.5,0.2-1,0.7-1.3s1-0.5,1.7-0.5c0.7,0,1.3,0.2,1.7,0.6s0.7,0.8,0.7,1.4H102c0-0.3-0.1-0.6-0.4-0.8s-0.6-0.3-1-0.3
		c-0.4,0-0.7,0.1-0.9,0.3s-0.3,0.4-0.3,0.7c0,0.3,0.1,0.5,0.3,0.6s0.6,0.3,1.1,0.4s1,0.3,1.3,0.4s0.6,0.4,0.7,0.6s0.2,0.5,0.2,0.9
		c0,0.6-0.2,1-0.7,1.4s-1,0.5-1.8,0.5c-0.5,0-1-0.1-1.3-0.3s-0.7-0.4-0.9-0.8s-0.3-0.7-0.3-1h1.1c0,0.4,0.2,0.7,0.4,0.9
		s0.6,0.3,1.1,0.3c0.4,0,0.7-0.1,1-0.2S102,22.8,102,22.6z"/>
	<path class="st0" d="M106,16.4v1.5h1.2v0.8H106v3.9c0,0.3,0.1,0.4,0.2,0.6c0.1,0.1,0.3,0.2,0.5,0.2c0.1,0,0.3,0,0.5-0.1v0.9
		c-0.3,0.1-0.6,0.1-0.8,0.1c-0.5,0-0.8-0.1-1.1-0.4s-0.4-0.7-0.4-1.2v-3.9h-1.2v-0.8h1.2v-1.5H106z"/>
	<path class="st0" d="M112.7,20.9v3.3h-1.1v-8.5h3.1c0.9,0,1.7,0.2,2.2,0.7s0.8,1.1,0.8,1.9c0,0.8-0.3,1.5-0.8,1.9s-1.3,0.7-2.2,0.7
		H112.7z M112.7,20h2c0.6,0,1.1-0.1,1.4-0.4c0.3-0.3,0.5-0.7,0.5-1.2c0-0.5-0.2-0.9-0.5-1.2s-0.8-0.5-1.3-0.5h-2.1V20z"/>
	<path class="st0" d="M122.8,24.2c-0.1-0.1-0.1-0.3-0.2-0.7c-0.5,0.5-1.1,0.8-1.8,0.8c-0.6,0-1.1-0.2-1.5-0.5s-0.6-0.8-0.6-1.3
		c0-0.7,0.3-1.2,0.8-1.5s1.2-0.5,2.1-0.5h1.1v-0.5c0-0.4-0.1-0.7-0.3-0.9s-0.6-0.3-1-0.3c-0.4,0-0.7,0.1-1,0.3s-0.4,0.4-0.4,0.7
		h-1.1c0-0.3,0.1-0.6,0.3-0.9s0.5-0.5,0.9-0.7s0.8-0.3,1.3-0.3c0.7,0,1.3,0.2,1.7,0.5s0.6,0.9,0.6,1.5v2.9c0,0.6,0.1,1,0.2,1.4v0.1
		H122.8z M121.1,23.4c0.3,0,0.7-0.1,1-0.3s0.5-0.4,0.7-0.7v-1.3h-0.8c-1.3,0-2,0.4-2,1.2c0,0.3,0.1,0.6,0.3,0.8
		S120.7,23.4,121.1,23.4z"/>
	<path class="st0" d="M128.5,18.9c-0.2,0-0.3,0-0.5,0c-0.7,0-1.2,0.3-1.4,0.9v4.5h-1.1v-6.3h1.1l0,0.7c0.4-0.6,0.9-0.8,1.5-0.8
		c0.2,0,0.4,0,0.5,0.1V18.9z"/>
	<path class="st0" d="M131.3,16.4v1.5h1.2v0.8h-1.2v3.9c0,0.3,0.1,0.4,0.2,0.6c0.1,0.1,0.3,0.2,0.5,0.2c0.1,0,0.3,0,0.5-0.1v0.9
		c-0.3,0.1-0.6,0.1-0.8,0.1c-0.5,0-0.8-0.1-1.1-0.4s-0.4-0.7-0.4-1.2v-3.9H129v-0.8h1.2v-1.5H131.3z"/>
	<path class="st0" d="M134.8,17.9l0,0.8c0.5-0.6,1.1-0.9,1.9-0.9c1.3,0,2,0.8,2,2.3v4.2h-1.1v-4.2c0-0.5-0.1-0.8-0.3-1
		s-0.5-0.3-1-0.3c-0.4,0-0.7,0.1-0.9,0.3s-0.5,0.4-0.6,0.7v4.5h-1.1v-6.3H134.8z"/>
	<path class="st0" d="M143,24.4c-0.9,0-1.6-0.3-2.1-0.8s-0.8-1.3-0.8-2.3v-0.2c0-0.6,0.1-1.2,0.4-1.7s0.6-0.9,1-1.2s0.9-0.4,1.4-0.4
		c0.8,0,1.5,0.3,1.9,0.8s0.7,1.3,0.7,2.3v0.5h-4.3c0,0.6,0.2,1.1,0.5,1.5s0.8,0.6,1.3,0.6c0.4,0,0.7-0.1,1-0.2s0.5-0.4,0.7-0.6
		l0.7,0.5C144.8,24,144.1,24.4,143,24.4z M142.9,18.7c-0.4,0-0.8,0.2-1.1,0.5s-0.5,0.8-0.6,1.3h3.2v-0.1c0-0.6-0.2-1-0.4-1.3
		S143.3,18.7,142.9,18.7z"/>
	<path class="st0" d="M149.8,18.9c-0.2,0-0.3,0-0.5,0c-0.7,0-1.2,0.3-1.4,0.9v4.5h-1.1v-6.3h1.1l0,0.7c0.4-0.6,0.9-0.8,1.5-0.8
		c0.2,0,0.4,0,0.5,0.1V18.9z"/>
	<path class="st0" d="M153.5,21c0-1,0.2-1.8,0.7-2.3s1.1-0.9,1.8-0.9c0.7,0,1.3,0.3,1.8,0.8v-3.3h1.1v9h-1l-0.1-0.7
		c-0.4,0.5-1,0.8-1.8,0.8c-0.7,0-1.3-0.3-1.8-0.9S153.5,22.1,153.5,21L153.5,21z M154.6,21.1c0,0.7,0.1,1.3,0.4,1.7s0.7,0.6,1.2,0.6
		c0.7,0,1.2-0.3,1.5-0.9v-2.9c-0.3-0.6-0.8-0.9-1.5-0.9c-0.5,0-0.9,0.2-1.2,0.6S154.6,20.3,154.6,21.1z"/>
	<path class="st0" d="M163.1,24.4c-0.9,0-1.6-0.3-2.1-0.8s-0.8-1.3-0.8-2.3v-0.2c0-0.6,0.1-1.2,0.4-1.7s0.6-0.9,1-1.2
		s0.9-0.4,1.4-0.4c0.8,0,1.5,0.3,1.9,0.8s0.7,1.3,0.7,2.3v0.5h-4.3c0,0.6,0.2,1.1,0.5,1.5s0.8,0.6,1.3,0.6c0.4,0,0.7-0.1,1-0.2
		s0.5-0.4,0.7-0.6l0.7,0.5C165,24,164.2,24.4,163.1,24.4z M163,18.7c-0.4,0-0.8,0.2-1.1,0.5s-0.5,0.8-0.6,1.3h3.2v-0.1
		c0-0.6-0.2-1-0.4-1.3S163.5,18.7,163,18.7z"/>
	<path class="st0" d="M170.6,22.6c0-0.3-0.1-0.5-0.3-0.7s-0.6-0.3-1.2-0.4s-1-0.3-1.3-0.4s-0.6-0.4-0.7-0.6s-0.2-0.5-0.2-0.8
		c0-0.5,0.2-1,0.7-1.3s1-0.5,1.7-0.5c0.7,0,1.3,0.2,1.7,0.6s0.7,0.8,0.7,1.4h-1.1c0-0.3-0.1-0.6-0.4-0.8s-0.6-0.3-1-0.3
		c-0.4,0-0.7,0.1-0.9,0.3s-0.3,0.4-0.3,0.7c0,0.3,0.1,0.5,0.3,0.6s0.6,0.3,1.1,0.4s1,0.3,1.3,0.4s0.6,0.4,0.7,0.6s0.2,0.5,0.2,0.9
		c0,0.6-0.2,1-0.7,1.4s-1,0.5-1.8,0.5c-0.5,0-1-0.1-1.3-0.3s-0.7-0.4-0.9-0.8s-0.3-0.7-0.3-1h1.1c0,0.4,0.2,0.7,0.4,0.9
		s0.6,0.3,1.1,0.3c0.4,0,0.7-0.1,1-0.2S170.6,22.8,170.6,22.6z"/>
	<path class="st0" d="M12.6,38.6h-1.1l-4.3-6.6v6.6H6.1v-8.5h1.1l4.3,6.6v-6.6h1.1V38.6z"/>
	<path class="st0" d="M18.4,38c-0.4,0.5-1,0.7-1.9,0.7c-0.7,0-1.2-0.2-1.5-0.6s-0.5-1-0.5-1.7v-4.1h1.1v4.1c0,1,0.4,1.4,1.2,1.4
		c0.8,0,1.4-0.3,1.7-0.9v-4.6h1.1v6.3h-1L18.4,38z M15.1,30.6c0-0.2,0.1-0.3,0.2-0.4c0.1-0.1,0.3-0.2,0.5-0.2s0.4,0.1,0.5,0.2
		c0.1,0.1,0.2,0.3,0.2,0.4s-0.1,0.3-0.2,0.4c-0.1,0.1-0.3,0.2-0.5,0.2s-0.4-0.1-0.5-0.2C15.1,30.9,15.1,30.8,15.1,30.6z M17.6,30.6
		c0-0.2,0.1-0.3,0.2-0.4c0.1-0.1,0.3-0.2,0.5-0.2s0.4,0.1,0.5,0.2c0.1,0.1,0.2,0.3,0.2,0.4s-0.1,0.3-0.2,0.4
		c-0.1,0.1-0.3,0.2-0.5,0.2s-0.4-0.1-0.5-0.2C17.6,30.9,17.6,30.8,17.6,30.6z"/>
	<path class="st0" d="M24.1,33.3c-0.2,0-0.3,0-0.5,0c-0.7,0-1.2,0.3-1.4,0.9v4.5h-1.1v-6.3h1.1l0,0.7c0.4-0.6,0.9-0.8,1.5-0.8
		c0.2,0,0.4,0,0.5,0.1V33.3z"/>
	<path class="st0" d="M26.1,32.3l0,0.8c0.5-0.6,1.1-0.9,1.9-0.9c1.3,0,2,0.8,2,2.3v4.2H29v-4.2c0-0.5-0.1-0.8-0.3-1s-0.5-0.3-1-0.3
		c-0.4,0-0.7,0.1-0.9,0.3s-0.5,0.4-0.6,0.7v4.5h-1.1v-6.3H26.1z"/>
	<path class="st0" d="M37.1,35.5c0,1-0.2,1.7-0.7,2.3s-1,0.9-1.8,0.9c-0.8,0-1.4-0.3-1.9-0.8l-0.1,0.7h-1v-9h1.1V33
		c0.4-0.5,1-0.8,1.8-0.8s1.4,0.3,1.8,0.9S37.1,34.4,37.1,35.5L37.1,35.5z M36,35.4c0-0.7-0.1-1.3-0.4-1.7s-0.7-0.6-1.2-0.6
		c-0.7,0-1.2,0.3-1.5,1v2.7c0.3,0.7,0.8,1,1.6,1c0.5,0,0.9-0.2,1.2-0.6S36,36.2,36,35.4z"/>
	<path class="st0" d="M41.1,38.8c-0.9,0-1.6-0.3-2.1-0.8s-0.8-1.3-0.8-2.3v-0.2c0-0.6,0.1-1.2,0.4-1.7s0.6-0.9,1-1.2
		s0.9-0.4,1.4-0.4c0.8,0,1.5,0.3,1.9,0.8s0.7,1.3,0.7,2.3v0.5h-4.3c0,0.6,0.2,1.1,0.5,1.5s0.8,0.6,1.3,0.6c0.4,0,0.7-0.1,1-0.2
		s0.5-0.4,0.7-0.6l0.7,0.5C43,38.4,42.2,38.8,41.1,38.8z M41,33.1c-0.4,0-0.8,0.2-1.1,0.5s-0.5,0.8-0.6,1.3h3.2v-0.1
		c0-0.6-0.2-1-0.4-1.3S41.4,33.1,41,33.1z"/>
	<path class="st0" d="M47.9,33.3c-0.2,0-0.3,0-0.5,0c-0.7,0-1.2,0.3-1.4,0.9v4.5h-1.1v-6.3h1.1l0,0.7c0.4-0.6,0.9-0.8,1.5-0.8
		c0.2,0,0.4,0,0.5,0.1V33.3z"/>
	<path class="st0" d="M48.5,35.4c0-1,0.2-1.8,0.7-2.4s1.1-0.9,1.8-0.9c0.8,0,1.4,0.3,1.8,0.8l0.1-0.7h1v6.2c0,0.8-0.2,1.5-0.7,1.9
		s-1.1,0.7-2,0.7c-0.5,0-0.9-0.1-1.3-0.3s-0.8-0.5-1-0.8l0.6-0.7c0.5,0.6,1,0.9,1.7,0.9c0.5,0,0.9-0.1,1.2-0.4s0.4-0.7,0.4-1.3V38
		c-0.4,0.5-1,0.8-1.8,0.8c-0.7,0-1.3-0.3-1.8-0.9S48.5,36.5,48.5,35.4z M49.6,35.5c0,0.7,0.1,1.3,0.4,1.7s0.7,0.6,1.2,0.6
		c0.7,0,1.2-0.3,1.5-0.9V34c-0.3-0.6-0.8-0.9-1.5-0.9c-0.5,0-0.9,0.2-1.2,0.6S49.6,34.7,49.6,35.5z"/>
	<path class="st0" d="M58.6,38.6v-8.5h2.4c0.7,0,1.4,0.2,2,0.5s1,0.8,1.3,1.4s0.5,1.3,0.5,2.1v0.5c0,0.8-0.2,1.5-0.5,2.1
		s-0.8,1.1-1.3,1.4s-1.2,0.5-2,0.5H58.6z M59.8,31v6.7H61c0.9,0,1.5-0.3,2-0.8c0.5-0.5,0.7-1.3,0.7-2.3v-0.5c0-1-0.2-1.7-0.7-2.3
		c-0.5-0.5-1.1-0.8-1.9-0.8H59.8z"/>
	<path class="st0" d="M66.4,30.6c0-0.2,0.1-0.3,0.2-0.4S66.8,30,67,30s0.4,0.1,0.5,0.2s0.2,0.3,0.2,0.4s-0.1,0.3-0.2,0.4
		s-0.3,0.2-0.5,0.2s-0.4-0.1-0.5-0.2S66.4,30.8,66.4,30.6z M67.5,38.6h-1.1v-6.3h1.1V38.6z"/>
	<path class="st0" d="M69,35.4c0-1,0.2-1.8,0.7-2.4s1.1-0.9,1.8-0.9c0.8,0,1.4,0.3,1.8,0.8l0.1-0.7h1v6.2c0,0.8-0.2,1.5-0.7,1.9
		s-1.1,0.7-2,0.7c-0.5,0-0.9-0.1-1.3-0.3s-0.8-0.5-1-0.8l0.6-0.7c0.5,0.6,1,0.9,1.7,0.9c0.5,0,0.9-0.1,1.2-0.4s0.4-0.7,0.4-1.3V38
		c-0.4,0.5-1,0.8-1.8,0.8c-0.7,0-1.3-0.3-1.8-0.9S69,36.5,69,35.4z M70.1,35.5c0,0.7,0.1,1.3,0.4,1.7s0.7,0.6,1.2,0.6
		c0.7,0,1.2-0.3,1.5-0.9V34c-0.3-0.6-0.8-0.9-1.5-0.9c-0.5,0-0.9,0.2-1.2,0.6S70.1,34.7,70.1,35.5z"/>
	<path class="st0" d="M76,30.6c0-0.2,0.1-0.3,0.2-0.4s0.3-0.2,0.5-0.2s0.4,0.1,0.5,0.2s0.2,0.3,0.2,0.4s-0.1,0.3-0.2,0.4
		s-0.3,0.2-0.5,0.2s-0.4-0.1-0.5-0.2S76,30.8,76,30.6z M77.2,38.6h-1.1v-6.3h1.1V38.6z"/>
	<path class="st0" d="M80.4,30.8v1.5h1.2v0.8h-1.2v3.9c0,0.3,0.1,0.4,0.2,0.6c0.1,0.1,0.3,0.2,0.5,0.2c0.1,0,0.3,0,0.5-0.1v0.9
		c-0.3,0.1-0.6,0.1-0.8,0.1c-0.5,0-0.8-0.1-1.1-0.4s-0.4-0.7-0.4-1.2v-3.9h-1.2v-0.8h1.2v-1.5H80.4z"/>
	<path class="st0" d="M86.7,38.6c-0.1-0.1-0.1-0.3-0.2-0.7c-0.5,0.5-1.1,0.8-1.8,0.8c-0.6,0-1.1-0.2-1.5-0.5s-0.6-0.8-0.6-1.3
		c0-0.7,0.3-1.2,0.8-1.5s1.2-0.5,2.1-0.5h1.1v-0.5c0-0.4-0.1-0.7-0.3-0.9s-0.6-0.3-1-0.3c-0.4,0-0.7,0.1-1,0.3s-0.4,0.4-0.4,0.7
		h-1.1c0-0.3,0.1-0.6,0.3-0.9s0.5-0.5,0.9-0.7s0.8-0.3,1.3-0.3c0.7,0,1.3,0.2,1.7,0.5s0.6,0.9,0.6,1.5v2.9c0,0.6,0.1,1,0.2,1.4v0.1
		H86.7z M84.9,37.8c0.3,0,0.7-0.1,1-0.3s0.5-0.4,0.7-0.7v-1.3h-0.8c-1.3,0-2,0.4-2,1.2c0,0.3,0.1,0.6,0.3,0.8S84.6,37.8,84.9,37.8z"
		/>
	<path class="st0" d="M90.5,38.6h-1.1v-9h1.1V38.6z"/>
	<path class="st0" d="M100.1,34.9h-3.6v3.8h-1.1v-8.5h5.3V31h-4.2V34h3.6V34.9z"/>
	<path class="st0" d="M104.4,38.8c-0.9,0-1.6-0.3-2.1-0.8s-0.8-1.3-0.8-2.3v-0.2c0-0.6,0.1-1.2,0.4-1.7s0.6-0.9,1-1.2
		s0.9-0.4,1.4-0.4c0.8,0,1.5,0.3,1.9,0.8s0.7,1.3,0.7,2.3v0.5h-4.3c0,0.6,0.2,1.1,0.5,1.5s0.8,0.6,1.3,0.6c0.4,0,0.7-0.1,1-0.2
		s0.5-0.4,0.7-0.6l0.7,0.5C106.2,38.4,105.4,38.8,104.4,38.8z M104.2,33.1c-0.4,0-0.8,0.2-1.1,0.5s-0.5,0.8-0.6,1.3h3.2v-0.1
		c0-0.6-0.2-1-0.4-1.3S104.7,33.1,104.2,33.1z"/>
	<path class="st0" d="M111.8,37c0-0.3-0.1-0.5-0.3-0.7s-0.6-0.3-1.2-0.4s-1-0.3-1.3-0.4s-0.6-0.4-0.7-0.6s-0.2-0.5-0.2-0.8
		c0-0.5,0.2-1,0.7-1.3s1-0.5,1.7-0.5c0.7,0,1.3,0.2,1.7,0.6s0.7,0.8,0.7,1.4h-1.1c0-0.3-0.1-0.6-0.4-0.8s-0.6-0.3-1-0.3
		c-0.4,0-0.7,0.1-0.9,0.3s-0.3,0.4-0.3,0.7c0,0.3,0.1,0.5,0.3,0.6s0.6,0.3,1.1,0.4s1,0.3,1.3,0.4s0.6,0.4,0.7,0.6s0.2,0.5,0.2,0.9
		c0,0.6-0.2,1-0.7,1.4s-1,0.5-1.8,0.5c-0.5,0-1-0.1-1.3-0.3s-0.7-0.4-0.9-0.8s-0.3-0.7-0.3-1h1.1c0,0.4,0.2,0.7,0.4,0.9
		s0.6,0.3,1.1,0.3c0.4,0,0.7-0.1,1-0.2S111.8,37.2,111.8,37z"/>
	<path class="st0" d="M115.8,30.8v1.5h1.2v0.8h-1.2v3.9c0,0.3,0.1,0.4,0.2,0.6c0.1,0.1,0.3,0.2,0.5,0.2c0.1,0,0.3,0,0.5-0.1v0.9
		c-0.3,0.1-0.6,0.1-0.8,0.1c-0.5,0-0.8-0.1-1.1-0.4s-0.4-0.7-0.4-1.2v-3.9h-1.2v-0.8h1.2v-1.5H115.8z"/>
	<path class="st0" d="M118.2,30.6c0-0.2,0.1-0.3,0.2-0.4s0.3-0.2,0.5-0.2s0.4,0.1,0.5,0.2s0.2,0.3,0.2,0.4s-0.1,0.3-0.2,0.4
		s-0.3,0.2-0.5,0.2s-0.4-0.1-0.5-0.2S118.2,30.8,118.2,30.6z M119.4,38.6h-1.1v-6.3h1.1V38.6z"/>
	<path class="st0" d="M123.2,37.2l1.6-4.9h1.1l-2.3,6.3h-0.8l-2.3-6.3h1.1L123.2,37.2z"/>
	<path class="st0" d="M130.8,38.6c-0.1-0.1-0.1-0.3-0.2-0.7c-0.5,0.5-1.1,0.8-1.8,0.8c-0.6,0-1.1-0.2-1.5-0.5s-0.6-0.8-0.6-1.3
		c0-0.7,0.3-1.2,0.8-1.5s1.2-0.5,2.1-0.5h1.1v-0.5c0-0.4-0.1-0.7-0.3-0.9s-0.6-0.3-1-0.3c-0.4,0-0.7,0.1-1,0.3s-0.4,0.4-0.4,0.7
		h-1.1c0-0.3,0.1-0.6,0.3-0.9s0.5-0.5,0.9-0.7s0.8-0.3,1.3-0.3c0.7,0,1.3,0.2,1.7,0.5s0.6,0.9,0.6,1.5v2.9c0,0.6,0.1,1,0.2,1.4v0.1
		H130.8z M129,37.8c0.3,0,0.7-0.1,1-0.3s0.5-0.4,0.7-0.7v-1.3h-0.8c-1.3,0-2,0.4-2,1.2c0,0.3,0.1,0.6,0.3,0.8S128.6,37.8,129,37.8z"
		/>
	<path class="st0" d="M134.6,38.6h-1.1v-9h1.1V38.6z"/>
</g>
</svg>
