<?xml version="1.0" encoding="utf-8"?>
<!-- Generator: Adobe Illustrator 22.0.1, SVG Export Plug-In . SVG Version: 6.00 Build 0)  -->
<svg version="1.1" id="svg3152" xmlns:svg="http://www.w3.org/2000/svg"
	 xmlns="http://www.w3.org/2000/svg" xmlns:xlink="http://www.w3.org/1999/xlink" x="0px" y="0px" viewBox="0 0 70 80"
	 style="enable-background:new 0 0 70 80;" xml:space="preserve">
<style type="text/css">
	.st0{fill:#019966;}
	.st1{fill:#FFFFFF;}
</style>
<path id="path2681" class="st0" d="M7.5,69.1h54.9V10.9H7.5V69.1z"/>
<path id="path2683" class="st1" d="M47.4,63.3V48.6h2.6v8.1l4.1-4.4h3l-4.2,4.8l5,6.2h-3.1l-4.8-5.9v5.9H47.4"/>
<path id="path2685" class="st1" d="M22.4,57.1c-0.4-0.7-1-1.3-1.7-1.7c0.2-0.2,0.4-0.4,0.6-0.6c1-1,1-3.1,0.3-4.2
	c-0.8-1.4-2.2-2.3-4.7-2.4l-4.5,0.1v9.6l0,5.4l2.5,0c0-1.7,0-3.7,0-5.4v-1.1h2.7c0.2,0,0.4,0,0.6,0.1c0.6,0.1,1.1,0.4,1.5,0.8
	c0.4,0.6,0.7,1.7,0.3,2.4c-0.4,0.8-1.3,1.3-2.3,1.3H15l0.7,2h2.1c1.8,0.1,3.3-0.7,4.3-1.9C23,60.4,23,58.3,22.4,57.1z M15,50.3h2
	c0,0,2.8-0.2,2.8,1.9c0,0,0.2,2.2-1.8,2.5c-0.1,0-0.2,0-0.2,0H15V50.3"/>
<path id="path2687" class="st1" d="M43.7,57.1v6.3h2.6v-6.4c-0.1-5.2-5.1-4.7-5.1-4.7c-0.6,0-1.3,0.1-1.9,0.5
	c-0.3,1.1-0.4,2.2-0.7,3.2l-0.1,0.2v-3.9l-2.6,0l0,11h2.6v-6.1l0-0.1c0-0.3,0.1-0.7,0.3-0.9c0.4-0.8,1.3-1.4,2.2-1.4
	C40.9,54.7,43.7,54.4,43.7,57.1"/>
<path id="path2689" class="st1" d="M34.8,57.9c0.1-3.2-2.5-5.7-5.7-5.7c-3.1,0-5.7,2.5-5.7,5.7s2.5,5.7,5.7,5.7
	c0.8,0,1.6-0.2,2.3-0.5c0.2-1.1,0.7-3.3,0.7-3.3l0,2.4v0.5l0,0.7h2.6l0-4.7L34.8,57.9z M29.1,61c-1.7,0-3.2-1.4-3.2-3.2
	s1.4-3.2,3.2-3.2c1.7,0,3.2,1.4,3.2,3.2S30.9,61,29.1,61"/>
<path id="path2691" class="st1" d="M40.6,40.6c-0.5,1.8-1.8,3.9-4,4.4c-0.9,0.2-2.2,0.5-3.6,0.4l0-2.8c1.3,0,2.8-0.1,3.7-1.3
	c0.7-0.8,0.9-1.7,1.1-2.7l0.1-0.3c0.1-0.6,0.3-1.3,0.4-2.2l0,0l0,0l0-0.4c0.4-3.8,0.9-7.7,5.1-8.5c1.3-0.2,2.4-0.2,3.5-0.2l0,2.9
	c-1.2-0.1-2.7-0.1-3.7,0.9c-0.6,0.6-1,1.4-1.2,2.5l-0.5,2.8l0,0.1L40.6,40.6"/>
<path id="path2693" class="st1" d="M29.9,27.1c-3.8,0-6.9,2.9-6.9,6.6c0,0.1,0,11.7,0,11.7h3.1v-10l1.1,4.4c0.8,0.3,1.8,0.5,2.7,0.5
	c3.8,0,6.9-2.9,6.9-6.6C36.8,30,33.7,27.1,29.9,27.1z M29.9,37.2c-2.1,0-3.8-1.6-3.8-3.6c0-2,1.7-3.6,3.8-3.6c2.1,0,3.8,1.6,3.8,3.6
	C33.7,35.6,32,37.2,29.9,37.2"/>
<path id="path2695" class="st1" d="M53.6,27.1v10l-1.1-4.4c-0.8-0.3-1.8-0.5-2.7-0.5c-3.8,0-6.9,2.9-6.9,6.6c0,3.6,3.1,6.6,6.9,6.6
	c3.8,0,6.9-2.9,6.9-6.6c0-0.1,0-11.7,0-11.7H53.6z M49.8,42.4c-2.1,0-3.8-1.6-3.8-3.6c0-2,1.7-3.6,3.8-3.6c2.1,0,3.8,1.6,3.8,3.6
	C53.6,40.8,51.9,42.4,49.8,42.4"/>
<path id="path2697" class="st1" d="M12.3,37.1c0.7-9.6,10-17.5,22.4-18.3c7.4-0.5,14.3,1.6,19.3,5.4l1.5-2.7
	c-5.4-3.7-12.8-5.6-20.4-4.8C22,17.9,12.4,26.8,12.1,37.1C12.1,37.1,12.2,37.2,12.3,37.1"/>
</svg>
