<?xml version="1.0" encoding="utf-8"?>
<!-- Generator: Adobe Illustrator 22.0.1, SVG Export Plug-In . SVG Version: 6.00 Build 0)  -->
<svg version="1.1" id="Ebene_1" xmlns="http://www.w3.org/2000/svg" xmlns:xlink="http://www.w3.org/1999/xlink" x="0px" y="0px"
	 viewBox="0 0 208.2 61.7" style="enable-background:new 0 0 208.2 61.7;" xml:space="preserve">
<style type="text/css">
	.st0{fill:#007C9E;}
	.st1{fill:#666666;}
</style>
<g>
	<path class="st1" d="M118.6,32.2c-0.2-4.5-1.9-7.8-6.6-7.6c-3.9,0.2-6.4,3.3-6.2,7.4c0.2,4.5,2.7,7.4,7.6,7.2
		c2.3-0.1,3.4-0.7,4.4-1.1l-0.1-2.6c-0.6,0.6-2.5,1.5-4.2,1.6c-2.4,0.1-4.7-1.6-4.8-4.4L118.6,32.2z M115.8,30.4l-7.2,0.4
		c0.1-1.8,1-4,3.5-4.1C114.3,26.6,115.7,28.2,115.8,30.4"/>
</g>
<polygon class="st1" points="34.8,29.1 32.8,40.5 32.8,40.5 29.7,29.4 25.9,29.6 24.1,40.9 24.1,40.9 20.9,29.9 17.9,30 22.4,43.8 
	26,43.6 27.9,32.3 27.9,32.3 31,43.4 34.6,43.2 37.6,29 "/>
<g>
	<path class="st1" d="M39.8,37.8c0.2,3.7,2.4,5.2,6,5c3.6-0.2,5.6-1.8,5.4-5.6L51,33l-2.8,0.1l0.2,3.4c0.1,2.4-0.6,4-2.7,4.1
		c-2.1,0.1-3-1.4-3.1-3.8l-0.4-8.1l-2.8,0.1L39.8,37.8z"/>
</g>
<polygon class="st1" points="54.4,42.1 57.1,42 56.6,31.5 56.6,31.5 62.5,41.7 66,41.5 65.2,27.5 62.5,27.7 63.1,38.2 63,38.2 
	57.2,28 53.7,28.1 "/>
<g>
	<path class="st1" d="M76.1,27.2c-1-0.3-2.2-0.4-3.4-0.3c-2.5,0.1-4.8,1.4-4.7,4.5c0.2,4.6,6.3,3.2,6.5,5.9c0.1,1.3-1.3,1.9-2.4,1.9
		c-1.1,0.1-2.2-0.2-3.2-0.7l-0.1,2.5c1.4,0.3,2.1,0.4,3.6,0.4c2.8-0.1,5.2-1.4,5-4.5c-0.2-4.7-6.3-3.3-6.5-5.8
		c-0.1-1.5,1.1-2,2.1-2.1c1-0.1,2,0.1,2.9,0.5L76.1,27.2z"/>
	<path class="st1" d="M90.1,37.7c-0.6,0.4-1.9,0.7-3,0.7c-3,0.2-4.9-1.9-5-4.7c-0.2-2.9,1.5-5.2,4.4-5.3c1-0.1,2,0,3.1,0.6l0.1-2.4
		c-1-0.3-2.3-0.5-3.2-0.4c-4.8,0.2-7.5,3.1-7.3,7.9c0.2,4.7,3.5,6.8,8,6.6c1.1-0.1,2.2-0.3,3.2-0.6L90.1,37.7z"/>
</g>
<polygon class="st1" points="92.5,40.2 95.3,40 94.9,33.9 100.6,33.6 100.9,39.7 103.7,39.6 102.9,25.6 100.1,25.7 100.4,31.4 
	94.8,31.7 94.5,26 91.7,26.2 "/>
<rect x="47.8" y="28.3" transform="matrix(0.9986 -5.243058e-02 5.243058e-02 0.9986 -1.4931 2.6243)" class="st1" width="2.9" height="2.9"/>
<rect x="47.6" y="23.6" transform="matrix(0.9986 -5.246186e-02 5.246186e-02 0.9986 -1.2451 2.6063)" class="st1" width="2.9" height="2.9"/>
<g>
	<path class="st1" d="M134,31.1c0.2,4.3-2.9,7-7.1,7.3l-4.1,0.2l-0.7-14l4.1-0.2C130.8,24.2,133.7,26.4,134,31.1 M131.2,31.2
		c-0.2-3.3-1.8-4.9-5.1-4.8l-1.3,0.1l0.5,9.9l1.6-0.1C129.6,36.2,131.4,34.1,131.2,31.2"/>
	<path class="st1" d="M148.5,30.8c-0.2-4.5-1.9-7.8-6.6-7.6c-3.9,0.2-6.4,3.3-6.2,7.4c0.2,4.5,2.7,7.4,7.6,7.2
		c2.3-0.1,3.4-0.7,4.4-1.1l-0.1-2.6c-0.6,0.6-2.5,1.5-4.2,1.6c-2.4,0.1-4.7-1.6-4.8-4.4L148.5,30.8z M145.7,29l-7.2,0.4
		c0.1-1.8,1-4,3.5-4.1C144.2,25.2,145.5,26.9,145.7,29"/>
	<path class="st1" d="M151.1,36.7c1.2,0.6,2.6,0.6,3.9,0.6c2.5-0.1,4.8-1.6,4.7-4.6c-0.2-4.5-6.2-3.3-6.4-6.2
		c-0.1-1.2,1.1-1.8,2.4-1.8c0.6,0,2.2,0.2,2.8,0.6l0.1-2.3c-1-0.2-2-0.4-3.2-0.4c-2.8,0.1-4.9,1.7-4.7,4.6c0.2,3.9,6.2,3.4,6.4,5.9
		c0.1,1.5-1.3,2.1-2.5,2.1c-0.7,0-2.2-0.2-3.3-0.8L151.1,36.7z"/>
	<path class="st1" d="M162.6,43.2c1.4,0.4,2.5,0.7,4.9,0.6c5-0.3,8.8-3.5,8.5-9c-0.3-5.6-3.8-8.7-9.5-8.4c-2.6,0.1-4,0.7-4.9,1
		l0.5,9l6.4-0.3l-0.1-2.1l-3.7,0.2l-0.3-5.2c0.6-0.1,1.4-0.3,2.2-0.4c3.4-0.2,6.4,2.3,6.6,6.1c0.2,3.7-2.1,6.3-6,6.5
		c-2.1,0.1-3.5-0.2-4.7-0.9L162.6,43.2z"/>
</g>
<polygon class="st1" points="187.3,21.2 187.8,31.8 187.8,31.8 181.1,21.5 177.7,21.7 178.4,35.7 181.1,35.5 180.5,24.7 180.6,24.7 
	187.5,35.2 190.7,35 189.9,21.1 "/>
<rect x="160.9" y="17.7" transform="matrix(0.9986 -5.241901e-02 5.241901e-02 0.9986 -0.7796 8.5374)" class="st1" width="2.9" height="2.9"/>
</svg>
