<?xml version="1.0" encoding="utf-8"?>
<!-- Generator: Adobe Illustrator 22.0.1, SVG Export Plug-In . SVG Version: 6.00 Build 0)  -->
<svg version="1.1" id="Ebene_1" xmlns="http://www.w3.org/2000/svg" xmlns:xlink="http://www.w3.org/1999/xlink" x="0px" y="0px"
	 viewBox="0 0 119 119" style="enable-background:new 0 0 119 119;" xml:space="preserve">
<style type="text/css">
	.st0{fill:#1D1D1B;}
</style>
<g>
	<path class="st0" d="M59.5,4C28.9,4,4,28.9,4,59.5C4,90.1,28.9,115,59.5,115c30.6,0,55.5-24.9,55.5-55.5C115,28.9,90.1,4,59.5,4z
		 M59.5,113.5c-29.8,0-54-24.2-54-54c0-29.8,24.2-54,54-54c29.8,0,54,24.2,54,54C113.5,89.3,89.3,113.5,59.5,113.5z"/>
	<path class="st0" d="M78.5,87.5H79c0.3,0,0.5-0.2,0.6-0.6l1.6-7.5l6.6,7.7c0.2,0.3,0.5,0.4,0.8,0.4H89c0.1,0,0.3,0,0.4-0.1
		c0.1-0.1,0.2-0.2,0.2-0.3s-0.1-0.3-0.2-0.4l-7.2-8.4l9.7-7.6c0.1-0.1,0.2-0.2,0.2-0.3c0-0.1,0-0.3-0.1-0.4
		c-0.1-0.1-0.2-0.2-0.4-0.2h-0.5c-0.4,0-0.7,0.1-1,0.4l-8.3,6.5l1.3-6.3c0-0.2,0-0.3-0.1-0.4s-0.2-0.2-0.4-0.2h-0.5
		c-0.2,0-0.3,0.1-0.4,0.2c-0.1,0.1-0.2,0.2-0.2,0.4L78,87c0,0.2,0,0.3,0.1,0.4C78.2,87.5,78.3,87.5,78.5,87.5"/>
	<path class="st0" d="M64.8,87.5h10.1c0.2,0,0.3-0.1,0.4-0.2c0.1-0.1,0.2-0.2,0.2-0.4l0.1-0.4c0-0.2,0-0.3-0.1-0.4
		c-0.1-0.1-0.2-0.2-0.4-0.2h-9l1.4-6.7h8.3c0.2,0,0.3,0,0.4-0.2c0.1-0.1,0.2-0.2,0.2-0.4l0.1-0.4c0-0.2,0-0.3-0.1-0.4
		c-0.1-0.1-0.2-0.2-0.4-0.2h-8.3l1.4-6.4h8.8c0.2,0,0.3,0,0.4-0.2c0.1-0.1,0.2-0.2,0.2-0.4l0.1-0.4c0-0.2,0-0.3-0.1-0.4
		s-0.2-0.2-0.4-0.2h-9.9c-0.2,0-0.3,0.1-0.4,0.2c-0.1,0.1-0.2,0.2-0.2,0.4L64.3,87c0,0.2,0,0.3,0.1,0.4
		C64.5,87.5,64.6,87.5,64.8,87.5"/>
	<path class="st0" d="M51.1,87.5h10.1c0.2,0,0.3-0.1,0.4-0.2c0.1-0.1,0.2-0.2,0.2-0.4l0.1-0.4c0-0.2,0-0.3-0.1-0.4
		c-0.1-0.1-0.2-0.2-0.4-0.2h-9l1.4-6.7h8.3c0.2,0,0.3,0,0.4-0.2c0.1-0.1,0.2-0.2,0.2-0.4l0.1-0.4c0-0.2,0-0.3-0.1-0.4
		c-0.1-0.1-0.2-0.2-0.4-0.2h-8.3l1.4-6.4h8.8c0.2,0,0.3,0,0.4-0.2c0.1-0.1,0.2-0.2,0.2-0.4l0.1-0.4c0-0.2,0-0.3-0.1-0.4
		c-0.1-0.1-0.2-0.2-0.4-0.2h-9.9c-0.2,0-0.3,0.1-0.4,0.2c-0.1,0.1-0.2,0.2-0.2,0.4L50.7,87c0,0.2,0,0.3,0.1,0.4
		C50.8,87.5,50.9,87.5,51.1,87.5"/>
	<path class="st0" d="M35.1,87.5h0.5c0.4,0,0.7-0.2,0.9-0.6L42,76.3l1.1,10.6c0,0.4,0.3,0.6,0.7,0.6h0.5c0.2,0,0.4,0,0.5-0.1
		c0.1-0.1,0.2-0.2,0.3-0.5L52,70.5c0.1-0.1,0.1-0.2,0.1-0.3c0-0.2-0.1-0.3-0.4-0.3h-0.6c-0.3,0-0.5,0.1-0.6,0.4l-6,14.4l-1.1-10.3
		c0-0.4-0.3-0.6-0.7-0.6h-0.5c-0.4,0-0.7,0.2-0.9,0.6l-5.2,10v-14c0-0.1,0-0.3-0.1-0.4c-0.1-0.1-0.2-0.2-0.4-0.2H35
		c-0.2,0-0.3,0-0.4,0.1c-0.1,0.1-0.2,0.2-0.2,0.4v16.6c0,0.2,0,0.4,0.1,0.5C34.7,87.5,34.9,87.5,35.1,87.5"/>
	<path class="st0" d="M85.4,64.8h0.5c0.3,0,0.5-0.2,0.6-0.6l1.6-7.5l6.6,7.7c0.2,0.3,0.5,0.4,0.8,0.4H96c0.1,0,0.3,0,0.4-0.1
		c0.1-0.1,0.2-0.2,0.2-0.3s-0.1-0.3-0.2-0.4l-7.2-8.4l9.7-7.6c0.1-0.1,0.2-0.2,0.2-0.3s0-0.3-0.1-0.4c-0.1-0.1-0.2-0.2-0.4-0.2h-0.5
		c-0.4,0-0.7,0.1-1,0.4L88.7,54l1.3-6.3c0-0.2,0-0.3-0.1-0.4s-0.2-0.2-0.4-0.2h-0.5c-0.2,0-0.3,0.1-0.4,0.2s-0.2,0.2-0.2,0.4
		l-3.5,16.5c0,0.2,0,0.3,0.1,0.4C85.1,64.8,85.2,64.8,85.4,64.8"/>
	<path class="st0" d="M84.1,48.1c-0.9-0.6-2.1-0.9-3.6-0.9h-5.9c-0.2,0-0.3,0.1-0.4,0.2c-0.1,0.1-0.2,0.2-0.2,0.4l-3.5,16.6
		c0,0.2,0,0.3,0.1,0.4c0.1,0.1,0.2,0.2,0.4,0.2h0.5c0.2,0,0.3-0.1,0.5-0.2c0.1-0.1,0.2-0.2,0.3-0.4l1.5-6.9h5.2l2.6,6.8
		c0.1,0.2,0.2,0.4,0.3,0.5s0.3,0.2,0.5,0.2h0.3c0.1,0,0.3-0.1,0.4-0.2c0.1-0.1,0.2-0.2,0.2-0.4c0-0.1,0-0.2,0-0.3l-2.6-6.9
		c1.3-0.3,2.3-0.8,3.2-1.7c0.8-0.8,1.4-1.9,1.7-3.2c0.1-0.5,0.2-0.9,0.2-1.4C85.3,49.6,84.9,48.7,84.1,48.1z M83.6,52.2
		c-0.5,2.4-2.2,3.6-5.1,3.6h-4.7l1.5-7.2H80c2.5,0,3.7,0.9,3.7,2.6C83.7,51.5,83.7,51.8,83.6,52.2z"/>
	<path class="st0" d="M69.1,48.2c-1-0.9-2.3-1.3-4.1-1.3c-2,0-3.7,0.6-5.1,1.8s-2.3,2.9-2.9,5.2c-0.3,1.3-0.6,2.7-0.9,4.2
		C56.1,58.7,56,59.4,56,60c0,1.7,0.5,3,1.5,3.8c1,0.9,2.3,1.3,4.1,1.3c2,0,3.7-0.6,5.1-1.7c1.4-1.2,2.3-2.9,2.9-5.2
		c0.3-1.3,0.6-2.7,0.9-4.2c0.1-0.6,0.2-1.2,0.2-1.8C70.6,50.3,70.1,49,69.1,48.2z M68.8,54c-0.3,1.4-0.5,2.7-0.9,4
		c-0.5,1.9-1.2,3.3-2.4,4.2c-1.1,0.9-2.5,1.4-4.1,1.4c-1.3,0-2.3-0.3-2.9-0.9c-0.6-0.6-1-1.5-1-2.8c0-0.6,0.1-1.2,0.2-1.9
		c0.3-1.4,0.5-2.7,0.9-4c0.5-1.9,1.3-3.3,2.4-4.2c1.1-0.9,2.5-1.4,4.1-1.4c1.3,0,2.3,0.3,2.9,0.9s1,1.5,1,2.8
		C69,52.7,68.9,53.3,68.8,54z"/>
	<path class="st0" d="M40.5,64.8H41c0.4,0,0.7-0.2,0.9-0.6l5.5-10.6l1.1,10.6c0,0.4,0.3,0.6,0.7,0.6h0.5c0.2,0,0.4,0,0.5-0.1
		c0.1-0.1,0.2-0.2,0.3-0.5l6.9-16.4c0.1-0.1,0.1-0.2,0.1-0.3c0-0.2-0.1-0.3-0.4-0.3h-0.6c-0.3,0-0.5,0.1-0.6,0.4l-6,14.4l-1.1-10.3
		c0-0.4-0.3-0.6-0.7-0.6h-0.5c-0.4,0-0.7,0.2-0.9,0.6l-5.2,10v-14c0-0.1,0-0.3-0.1-0.4c-0.1-0.1-0.2-0.2-0.4-0.2h-0.5
		c-0.2,0-0.3,0-0.4,0.1c-0.1,0.1-0.2,0.2-0.2,0.4v16.6c0,0.2,0,0.4,0.1,0.5C40.2,64.8,40.3,64.8,40.5,64.8"/>
	<path class="st0" d="M56.4,42.1h0.5c0.4,0,0.7-0.2,0.9-0.6l5.5-10.6l1.1,10.6c0,0.4,0.3,0.6,0.7,0.6h0.5c0.2,0,0.4,0,0.5-0.1
		c0.1-0.1,0.2-0.2,0.3-0.5L73.3,25c0.1-0.1,0.1-0.2,0.1-0.3c0-0.2-0.1-0.3-0.4-0.3h-0.6c-0.3,0-0.5,0.1-0.6,0.4l-6,14.4l-1.1-10.3
		c0-0.4-0.3-0.6-0.7-0.6h-0.5c-0.4,0-0.7,0.2-0.9,0.6l-5.2,10v-14c0-0.1,0-0.3-0.1-0.4c-0.1-0.1-0.2-0.2-0.4-0.2h-0.5
		c-0.2,0-0.3,0-0.4,0.1c-0.1,0.1-0.2,0.2-0.2,0.4v16.6c0,0.2,0,0.4,0.1,0.5C56.1,42,56.2,42.1,56.4,42.1"/>
	<path class="st0" d="M40.4,42.1h10.1c0.2,0,0.3-0.1,0.4-0.2c0.1-0.1,0.2-0.2,0.2-0.4l0.1-0.4c0-0.2,0-0.3-0.1-0.4
		c-0.1-0.1-0.2-0.2-0.4-0.2h-9l1.4-6.7h8.3c0.2,0,0.3,0,0.4-0.2c0.1-0.1,0.2-0.2,0.2-0.4l0.1-0.4c0-0.2,0-0.3-0.1-0.4
		c-0.1-0.1-0.2-0.2-0.4-0.2h-8.3l1.4-6.4h8.8c0.2,0,0.3-0.1,0.4-0.2c0.1-0.1,0.2-0.2,0.2-0.4l0.1-0.4c0-0.2,0-0.3-0.1-0.4
		s-0.2-0.2-0.4-0.2h-9.9c-0.2,0-0.3,0.1-0.4,0.2c-0.1,0.1-0.2,0.2-0.2,0.4L40,41.5c0,0.2,0,0.3,0.1,0.4C40.1,42,40.3,42.1,40.4,42.1
		"/>
	<path class="st0" d="M24.3,42.1h0.5c0.2,0,0.3-0.1,0.4-0.2c0.1-0.1,0.2-0.2,0.2-0.4l3-14.1l6.3,14.4c0.1,0.2,0.2,0.3,0.5,0.3h0.5
		c0.2,0,0.3-0.1,0.4-0.2c0.1-0.1,0.2-0.2,0.2-0.4L40,25c0-0.2,0-0.3-0.1-0.4s-0.2-0.2-0.4-0.2h-0.5c-0.2,0-0.3,0.1-0.4,0.2
		c-0.1,0.1-0.2,0.2-0.2,0.4l-3,14.2L29,24.7c-0.1-0.2-0.2-0.3-0.5-0.3H28c-0.2,0-0.3,0.1-0.4,0.2c-0.1,0.1-0.2,0.2-0.2,0.4
		l-3.5,16.5c0,0.2,0,0.3,0.1,0.4C24,42,24.2,42.1,24.3,42.1"/>
	<path class="st0" d="M59.5,105.8C34,105.8,13.3,85,13.3,59.5c0-0.4,0.3-0.8,0.8-0.8s0.8,0.3,0.8,0.8c0,24.7,20.1,44.8,44.8,44.8
		c24.7,0,44.7-20.1,44.7-44.8c0-0.4,0.3-0.8,0.8-0.8s0.8,0.3,0.8,0.8C105.7,85,85,105.8,59.5,105.8z"/>
</g>
</svg>
