<?xml version="1.0" encoding="utf-8"?>
<!-- Generator: Adobe Illustrator 22.0.1, SVG Export Plug-In . SVG Version: 6.00 Build 0)  -->
<svg version="1.1" id="Ebene_1" xmlns="http://www.w3.org/2000/svg" xmlns:xlink="http://www.w3.org/1999/xlink" x="0px" y="0px"
	 viewBox="0 0 101.7 50" style="enable-background:new 0 0 101.7 50;" xml:space="preserve">
<style type="text/css">
	.st0{fill:#FFFFFF;}
</style>
<g>
	<path class="st0" d="M13.1,11.7C12.6,11.3,12,11,11.4,11c-0.9,0-1.4,0.5-1.4,1.4c0,0.7,0.4,1.2,1.3,1.2
		C12.2,13.6,12.6,12.9,13.1,11.7 M18,12.4c0-0.9-0.5-1.5-1.4-1.5c-1,0-1.3,0.9-1.9,2.3c0.5,0.5,1.1,0.9,1.8,0.9
		C17.4,14.1,18,13.3,18,12.4 M17.8,29.8c0-0.9-0.8-1.5-3.8-1.5c-3.1,0-3.7,0.7-3.7,1.5c0,0.9,0.7,1.5,3.7,1.5
		C17,31.3,17.8,30.6,17.8,29.8 M19.8,29.8c0,2.4-2,4-5.8,4c-3.8,0-5.7-1.6-5.7-4c0-2.4,1.9-4,5.7-4C17.7,25.8,19.8,27.4,19.8,29.8
		 M11,22.2v2.1H9.4c-0.2-1.2-0.5-2-1-2.8v-1.9h9v-2.1h2.1v7.1h-2.1v-2.4H11z M19.8,12.4c0,2.2-1.2,3.9-3,3.9c-1.3,0-2.2-0.8-2.7-1.9
		h-0.1c-0.6,0.9-1.5,1.5-2.6,1.5c-1.9,0-3.1-1.5-3.1-3.6c0-2,1.2-3.4,3-3.4c1.1,0,1.9,0.7,2.4,1.5h0.1c0.6-1.1,1.4-1.9,2.9-1.9
		C18.4,8.5,19.8,10.1,19.8,12.4 M8.2,39c0-2.2,1.4-3.7,3.5-3.7c1.9,0,3.9,1.8,5.8,3.6c-0.1-0.6-0.1-1.3-0.1-1.9v-2.2h2.2v7.8h-1.5
		c-2.7-2.8-4.6-4.8-6.2-4.8c-1.1,0-1.7,0.6-1.7,1.6c0,0.8,0.5,1.4,1.1,2L10,42.7C8.8,41.6,8.2,40.6,8.2,39 M24,5H4v40.8h20V5z"/>
	<path class="st0" d="M90.4,45.8h7.3v-2.5h-4.3v-8.9h-3V45.8z M86.2,45.8h3.2L86,34.4h-3.6l-3.5,11.4h3.1l0.6-2.4h3.2L86.2,45.8z
		 M83,41.1l0.2-0.8c0.3-1.1,0.6-2.5,0.8-3.6h0.1c0.3,1.1,0.6,2.5,0.8,3.6l0.2,0.8H83z M72.7,45.8h3.6l3.4-11.4h-3.1l-1.2,5
		c-0.3,1.2-0.5,2.4-0.8,3.6h-0.1c-0.3-1.2-0.5-2.4-0.8-3.6l-1.2-5h-3.2L72.7,45.8z M65.4,45.8h3V34.4h-3V45.8z M58.1,45.8h3V37h3
		v-2.5h-9V37h3V45.8z M45.6,44.4c1.2,1.1,2.9,1.6,4.3,1.6c2.8,0,4.5-1.7,4.5-3.6c0-1.6-0.8-2.6-2.2-3.1l-1.4-0.5
		c-1-0.4-1.7-0.6-1.7-1.1c0-0.5,0.5-0.8,1.2-0.8c0.8,0,1.5,0.3,2.3,0.8l1.5-1.9c-1.1-1-2.5-1.5-3.8-1.5c-2.5,0-4.2,1.6-4.2,3.5
		c0,1.6,1.1,2.7,2.3,3.2l1.4,0.6c1,0.4,1.5,0.6,1.5,1.1c0,0.5-0.4,0.8-1.3,0.8c-0.8,0-1.9-0.5-2.7-1.1L45.6,44.4z M36.8,45.8h7.5
		v-2.5h-4.5v-2h3.7v-2.5h-3.7V37h4.3v-2.5h-7.4V45.8z M27.8,45.8h3v-4.2h3.8v-2.5h-3.8V37h4.4v-2.5h-7.4V45.8z"/>
	<path class="st0" d="M79.2,31.2h7.3v-2.5h-4.3v-8.9h-3V31.2z M75,31.2h3.2l-3.5-11.4h-3.6l-3.5,11.4h3.1l0.6-2.4h3.2L75,31.2z
		 M71.8,26.4l0.2-0.8c0.3-1.1,0.6-2.5,0.8-3.6h0.1c0.3,1.1,0.6,2.5,0.8,3.6l0.2,0.8H71.8z M62.4,31.2h3v-8.9h3v-2.5h-9v2.5h3V31.2z
		 M55.1,31.2h3V19.8h-3V31.2z M43.5,25.5c0,3.9,2.6,5.8,5.7,5.8c1.6,0,3.1-0.7,3.9-1.4v-5.4h-4.3V27h1.7v1.6
		c-0.2,0.1-0.6,0.2-0.9,0.2c-2,0-3-1.2-3-3.3c0-2.1,1.2-3.3,2.7-3.3c0.9,0,1.4,0.3,2,0.8l1.6-1.9c-0.8-0.8-2-1.5-3.6-1.5
		C46.1,19.5,43.5,21.7,43.5,25.5 M38.8,31.2h3V19.8h-3V31.2z M30.9,28.7v-6.6H31c1.6,0,2.9,0.6,2.9,3.2s-1.3,3.3-2.9,3.3H30.9z
		 M27.8,31.2h3.5c3.3,0,5.7-1.7,5.7-5.7s-2.4-5.6-5.9-5.6h-3.4V31.2z"/>
	<path class="st0" d="M93.3,12.8c-1,0-1.8-0.8-1.8-2c0-1.2,0.8-2,1.8-2s1.8,0.7,1.8,2C95.1,12,94.3,12.8,93.3,12.8 M89.8,18.1
		c0,1.5,1.4,2.3,3.5,2.3c2.6,0,4.3-1.4,4.3-2.9c0-1.4-1-2-3-2H93c-1.2,0-1.5-0.4-1.5-0.9c0-0.5,0.2-0.8,0.5-1
		c0.4,0.2,0.9,0.3,1.3,0.3c1.7,0,3.1-1.1,3.1-3c0-0.7-0.3-1.4-0.7-1.8h1.8V8h-3c-0.3-0.1-0.7-0.2-1.2-0.2c-1.7,0-3.2,1.2-3.2,3
		c0,1,0.5,1.8,1.1,2.3v0.1c-0.4,0.3-0.9,0.9-0.9,1.6c0,0.7,0.3,1.1,0.8,1.4v0.1C90.2,16.7,89.8,17.4,89.8,18.1 M91,17.9
		c0-0.5,0.3-1,0.9-1.4c0.4,0.1,0.8,0.1,1.1,0.1h1.5c1.1,0,1.7,0.3,1.7,1.1c0,0.9-1.1,1.7-2.7,1.7C92,19.4,91,18.8,91,17.9
		 M84.1,16.5h1.4V11c0.6-1.4,1.4-2,2.2-2c0.3,0,0.5,0.1,0.8,0.1l0.3-1.3c-0.3-0.1-0.5-0.2-0.9-0.2c-1,0-1.8,0.7-2.4,1.8h-0.1L85.3,8
		h-1.2V16.5z M75.9,11.6c0.2-1.7,1.3-2.7,2.5-2.7c1.3,0,2.1,1,2.1,2.7H75.9z M74.5,12.2c0,2.8,1.8,4.5,4.1,4.5
		c1.2,0,2.1-0.4,2.8-0.9l-0.5-0.9c-0.6,0.4-1.3,0.7-2.1,0.7c-1.6,0-2.7-1.2-2.8-3h5.7c0-0.2,0.1-0.5,0.1-0.8c0-2.4-1.2-4-3.4-4
		C76.4,7.8,74.5,9.5,74.5,12.2 M66.5,14.6v-4.5C67.4,9.4,68.1,9,68.8,9c1.6,0,2.2,1.3,2.2,3.1c0,2.1-1,3.4-2.4,3.4
		C68.1,15.5,67.3,15.2,66.5,14.6 M65.1,16.5h1.2l0.1-0.8h0.1c0.8,0.7,1.6,1.1,2.4,1.1c1.9,0,3.7-1.7,3.7-4.6c0-2.6-1.2-4.3-3.4-4.3
		c-0.9,0-1.9,0.5-2.7,1.2l0-1.5V4h-1.4V16.5z M55.4,16.5h1.4v-6.2C57.7,9.5,58.3,9,59.2,9c1.1,0,1.6,0.7,1.6,2.3v5.2h1.4v-5.4
		c0-2.2-0.8-3.3-2.6-3.3c-1.2,0-2,0.6-2.9,1.4h-0.1L56.6,8h-1.2V16.5z M49,16.5h1.4V11c0.6-1.4,1.4-2,2.2-2c0.3,0,0.5,0.1,0.8,0.1
		l0.3-1.3c-0.3-0.1-0.5-0.2-0.9-0.2c-1,0-1.8,0.7-2.4,1.8h-0.1L50.2,8H49V16.5z M44.2,6.2c0.5,0,0.9-0.4,0.9-0.9
		c0-0.5-0.4-0.9-0.9-0.9c-0.5,0-0.9,0.4-0.9,0.9C43.4,5.8,43.7,6.2,44.2,6.2 M41.2,6.2c0.5,0,0.9-0.4,0.9-0.9c0-0.5-0.4-0.9-0.9-0.9
		s-0.9,0.4-0.9,0.9C40.3,5.8,40.7,6.2,41.2,6.2 M39.3,13.4c0,2.2,0.8,3.3,2.6,3.3c1.2,0,2-0.6,2.8-1.5h0.1l0.1,1.3H46V8h-1.4v6
		c-0.8,1-1.4,1.4-2.3,1.4c-1.1,0-1.6-0.7-1.6-2.3V8h-1.5V13.4z M28.1,16.5h1.4v-6c0-1.2-0.1-2.4-0.2-3.6h0.1l1.2,2.4l4.2,7.2h1.5V5
		h-1.4v5.9c0,1.2,0.1,2.5,0.2,3.7H35l-1.2-2.4L29.6,5h-1.5V16.5z"/>
</g>
</svg>
