<?xml version="1.0" encoding="utf-8"?>
<!-- Generator: Adobe Illustrator 22.1.0, SVG Export Plug-In . SVG Version: 6.00 Build 0)  -->
<svg version="1.1" id="Ebene_1" xmlns="http://www.w3.org/2000/svg" xmlns:xlink="http://www.w3.org/1999/xlink" x="0px" y="0px"
	 viewBox="0 0 175 29" style="enable-background:new 0 0 175 29;" xml:space="preserve">
<style type="text/css">
	.st0{fill:#666666;}
</style>
<g>
	<g>
		<path class="st0" d="M101.8,16c-0.2-4.5-1.9-7.8-6.6-7.6c-3.9,0.2-6.4,3.3-6.2,7.4c0.2,4.5,2.7,7.4,7.6,7.2
			c2.3-0.1,3.4-0.7,4.4-1.1l-0.1-2.6c-0.6,0.6-2.5,1.5-4.2,1.6c-2.4,0.1-4.7-1.6-4.8-4.4L101.8,16z M99,14.2l-7.2,0.4
			c0.1-1.8,1-4,3.5-4.1C97.5,10.4,98.9,12,99,14.2"/>
	</g>
	<polygon class="st0" points="18,12.9 16,24.3 16,24.3 12.9,13.2 9.1,13.4 7.3,24.7 7.3,24.7 4.1,13.7 1.1,13.8 5.6,27.6 9.2,27.4 
		11.1,16.1 11.1,16.1 14.2,27.2 17.8,27 20.8,12.8 	"/>
	<g>
		<path class="st0" d="M23,21.6c0.2,3.7,2.4,5.2,6,5s5.6-1.8,5.4-5.6l-0.2-4.2l-2.8,0.1l0.2,3.4c0.1,2.4-0.6,4-2.7,4.1
			c-2.1,0.1-3-1.4-3.1-3.8l-0.4-8.1l-2.8,0.1L23,21.6z"/>
	</g>
	<polygon class="st0" points="37.6,25.9 40.3,25.8 39.8,15.3 39.8,15.3 45.7,25.5 49.2,25.3 48.4,11.3 45.7,11.5 46.3,22 46.2,22 
		40.4,11.8 36.9,11.9 	"/>
	<g>
		<path class="st0" d="M59.3,11c-1-0.3-2.2-0.4-3.4-0.3c-2.5,0.1-4.8,1.4-4.7,4.5c0.2,4.6,6.3,3.2,6.5,5.9c0.1,1.3-1.3,1.9-2.4,1.9
			c-1.1,0.1-2.2-0.2-3.2-0.7L52,24.8c1.4,0.3,2.1,0.4,3.6,0.4c2.8-0.1,5.2-1.4,5-4.5c-0.2-4.7-6.3-3.3-6.5-5.8
			c-0.1-1.5,1.1-2,2.1-2.1s2,0.1,2.9,0.5L59.3,11z"/>
		<path class="st0" d="M73.3,21.5c-0.6,0.4-1.9,0.7-3,0.7c-3,0.2-4.9-1.9-5-4.7c-0.2-2.9,1.5-5.2,4.4-5.3c1-0.1,2,0,3.1,0.6l0.1-2.4
			c-1-0.3-2.3-0.5-3.2-0.4c-4.8,0.2-7.5,3.1-7.3,7.9c0.2,4.7,3.5,6.8,8,6.6c1.1-0.1,2.2-0.3,3.2-0.6L73.3,21.5z"/>
	</g>
	<polygon class="st0" points="75.7,24 78.5,23.8 78.1,17.7 83.8,17.4 84.1,23.5 86.9,23.4 86.1,9.4 83.3,9.5 83.6,15.2 78,15.5 
		77.7,9.8 74.9,10 	"/>
	
		<rect x="31" y="12.1" transform="matrix(0.9986 -5.243187e-02 5.243187e-02 0.9986 -0.6646 1.7199)" class="st0" width="2.9" height="2.9"/>
	
		<rect x="30.8" y="7.4" transform="matrix(0.9986 -5.246306e-02 5.246306e-02 0.9986 -0.4186 1.7041)" class="st0" width="2.9" height="2.9"/>
	<g>
		<path class="st0" d="M117.2,14.9c0.2,4.3-2.9,7-7.1,7.3l-4.1,0.2l-0.7-14l4.1-0.2C114,8,116.9,10.2,117.2,14.9 M114.4,15
			c-0.2-3.3-1.8-4.9-5.1-4.8l-1.3,0.1l0.5,9.9l1.6-0.1C112.8,20,114.6,17.9,114.4,15"/>
		<path class="st0" d="M131.7,14.6c-0.2-4.5-1.9-7.8-6.6-7.6c-3.9,0.2-6.4,3.3-6.2,7.4c0.2,4.5,2.7,7.4,7.6,7.2
			c2.3-0.1,3.4-0.7,4.4-1.1l-0.1-2.6c-0.6,0.6-2.5,1.5-4.2,1.6c-2.4,0.1-4.7-1.6-4.8-4.4L131.7,14.6z M128.9,12.8l-7.2,0.4
			c0.1-1.8,1-4,3.5-4.1C127.4,9,128.7,10.7,128.9,12.8"/>
		<path class="st0" d="M134.3,20.5c1.2,0.6,2.6,0.6,3.9,0.6c2.5-0.1,4.8-1.6,4.7-4.6c-0.2-4.5-6.2-3.3-6.4-6.2
			c-0.1-1.2,1.1-1.8,2.4-1.8c0.6,0,2.2,0.2,2.8,0.6l0.1-2.3c-1-0.2-2-0.4-3.2-0.4c-2.8,0.1-4.9,1.7-4.7,4.6c0.2,3.9,6.2,3.4,6.4,5.9
			c0.1,1.5-1.3,2.1-2.5,2.1c-0.7,0-2.2-0.2-3.3-0.8L134.3,20.5z"/>
		<path class="st0" d="M145.8,27c1.4,0.4,2.5,0.7,4.9,0.6c5-0.3,8.8-3.5,8.5-9c-0.3-5.6-3.8-8.7-9.5-8.4c-2.6,0.1-4,0.7-4.9,1l0.5,9
			l6.4-0.3l-0.1-2.1l-3.7,0.2l-0.3-5.2c0.6-0.1,1.4-0.3,2.2-0.4c3.4-0.2,6.4,2.3,6.6,6.1c0.2,3.7-2.1,6.3-6,6.5
			c-2.1,0.1-3.5-0.2-4.7-0.9L145.8,27z"/>
	</g>
	<polygon class="st0" points="170.5,5 171,15.6 171,15.6 164.3,5.3 160.9,5.5 161.6,19.5 164.3,19.3 163.7,8.5 163.8,8.5 170.7,19 
		173.9,18.8 173.1,4.9 	"/>
	
		<rect x="144.1" y="1.5" transform="matrix(0.9986 -5.242033e-02 5.242033e-02 0.9986 4.665162e-02 7.6336)" class="st0" width="2.9" height="2.9"/>
</g>
</svg>
