<?xml version="1.0" encoding="utf-8"?>
<!-- Generator: Adobe Illustrator 22.0.1, SVG Export Plug-In . SVG Version: 6.00 Build 0)  -->
<svg version="1.1" id="Ebene_1" xmlns="http://www.w3.org/2000/svg" xmlns:xlink="http://www.w3.org/1999/xlink" x="0px" y="0px"
	 viewBox="0 0 161 28.3" style="enable-background:new 0 0 161 28.3;" xml:space="preserve">
<style type="text/css">
	.st0{fill:#666666;}
</style>
<path class="st0" d="M155.8,3.7H155v1.3h0.7c0.4,0,0.7,0,0.9-0.1c0.2-0.1,0.2-0.3,0.2-0.5c0-0.2-0.1-0.4-0.3-0.5
	C156.4,3.8,156.2,3.7,155.8,3.7 M155.9,3.3c0.5,0,0.9,0.1,1.2,0.3c0.3,0.2,0.4,0.5,0.4,0.8c0,0.3-0.1,0.5-0.2,0.7
	c-0.2,0.2-0.4,0.3-0.6,0.3l0.9,1.7h-0.6L156,5.4h-0.9v1.7h-0.6V3.3H155.9z M158.7,5.3c0-0.4-0.1-0.8-0.2-1.1
	c-0.1-0.4-0.4-0.7-0.6-0.9c-0.3-0.3-0.6-0.5-0.9-0.6s-0.7-0.2-1.1-0.2s-0.8,0.1-1.1,0.2c-0.4,0.1-0.7,0.4-0.9,0.6
	c-0.3,0.3-0.5,0.6-0.6,0.9c-0.1,0.4-0.2,0.7-0.2,1.1c0,0.4,0.1,0.8,0.2,1.1c0.1,0.4,0.4,0.7,0.6,0.9c0.3,0.3,0.6,0.5,0.9,0.6
	c0.4,0.1,0.7,0.2,1.1,0.2c0.4,0,0.8-0.1,1.1-0.2c0.4-0.1,0.7-0.4,0.9-0.6c0.3-0.3,0.5-0.6,0.6-0.9C158.6,6.1,158.7,5.7,158.7,5.3z
	 M155.8,2c0.4,0,0.9,0.1,1.3,0.2c0.4,0.2,0.8,0.4,1,0.7c0.3,0.3,0.5,0.6,0.7,1c0.2,0.4,0.2,0.8,0.2,1.3c0,0.5-0.1,0.9-0.2,1.3
	c-0.2,0.4-0.4,0.7-0.7,1c-0.3,0.3-0.7,0.5-1.1,0.7s-0.8,0.3-1.3,0.3s-0.9-0.1-1.3-0.2c-0.4-0.2-0.8-0.4-1-0.7
	c-0.3-0.3-0.5-0.7-0.7-1c-0.2-0.4-0.2-0.8-0.2-1.3c0-0.4,0.1-0.9,0.3-1.3c0.2-0.4,0.4-0.8,0.7-1.1s0.6-0.5,1-0.7
	C154.9,2.1,155.4,2,155.8,2z"/>
<path class="st0" d="M4.6,23.1h12.2v2.5H2V10.6h2.7L4.6,23.1L4.6,23.1z M30.8,18.2c-0.4,0.1-0.8,0.2-1.1,0.3
	c-1.1,0.3-2.3,0.5-3.4,0.6c-0.9,0.1-3,0.5-3.8,1c-0.5,0.3-0.7,0.8-0.7,1.4c0,0.7,0.3,1.2,0.9,1.6c0.7,0.5,1.7,0.6,2.5,0.6
	c0.9,0,1.8-0.1,2.6-0.4l0.5-0.2v2.5l-0.3,0.1c-0.9,0.3-2,0.4-3,0.4c-1.5,0-3.1-0.3-4.2-1.2c-1.1-0.9-1.5-2.1-1.5-3.4
	c0-0.6,0.1-1.3,0.4-1.8c0.3-0.6,0.7-1.1,1.2-1.4c0.5-0.4,1.1-0.6,1.7-0.8c1.1-0.3,2.4-0.5,3.5-0.6c0.5-0.1,1-0.1,1.5-0.2
	c0.9-0.1,3.2-0.5,3.2-1.7c0-0.7-0.3-1.1-0.9-1.5c-0.8-0.4-1.9-0.5-2.8-0.5c-1.1,0-2.6,0.1-3.5,0.8c-0.3,0.2-0.5,0.4-0.7,0.7
	l-0.1,0.1H20l0.2-0.4c0.3-0.9,0.9-1.7,1.6-2.2c1.4-1,3.4-1.3,5.1-1.3c1.1,0,2.3,0.1,3.4,0.4c0.9,0.3,1.6,0.7,2.2,1.4
	c0.3,0.4,0.5,0.9,0.7,1.4c0.2,0.7,0.2,1.6,0.2,2.3v9.7h-2.6v-2.5v-3.5v-0.1v-1.3H30.8z M56.5,21.7c0.2,0.5,0.6,0.9,1.1,1.3
	c0.9,0.6,2.2,0.8,3.3,0.8c1.1,0,2.5-0.1,3.5-0.6c0.7-0.4,1.1-0.9,1.1-1.7c0-0.5-0.1-0.9-0.5-1.1c-0.5-0.4-1.3-0.5-1.9-0.6L59,19
	c-1.2-0.2-2.7-0.5-3.7-1.4c-0.9-0.8-1.2-1.8-1.2-2.9c0-1.4,0.7-2.6,1.8-3.4c1.4-0.9,3.2-1.2,4.9-1.2s3.5,0.3,4.9,1.3
	c0.9,0.6,1.4,1.4,1.7,2.4l0.1,0.4h-2.7l-0.1-0.2c-0.2-0.4-0.5-0.7-0.9-0.9c-0.9-0.5-2.2-0.7-3.2-0.7c-0.9,0-2.1,0.1-2.9,0.6
	c-0.6,0.3-0.9,0.8-0.9,1.4c0,0.5,0.2,0.9,0.5,1.1c0.5,0.4,1.8,0.6,2.4,0.7l3.7,0.6c1.2,0.2,2.7,0.5,3.6,1.3c0.9,0.7,1.2,1.8,1.2,2.8
	c0,1.6-0.6,2.9-2,3.7c-1.5,1-3.6,1.3-5.4,1.3c-1.7,0-3.6-0.3-5-1.4c-1-0.7-1.6-1.7-1.9-2.9l-0.1-0.4h2.7L56.5,21.7z M85,21.9
	c-0.4,1-1.1,1.9-1.9,2.6c-1.4,1.2-3.1,1.7-4.9,1.7c-2.2,0-4.2-0.6-5.8-2.2c-1.6-1.6-2.2-3.6-2.2-5.8s0.6-4.2,2.2-5.8
	c1.6-1.6,3.6-2.2,5.8-2.2c1.8,0,3.4,0.4,4.8,1.5c0.7,0.6,1.3,1.3,1.8,2.1l0.3,0.5h-3.1l-0.1-0.1c-0.2-0.3-0.5-0.5-0.8-0.7
	c-0.9-0.6-1.9-0.8-3-0.8c-1.5,0-2.8,0.4-3.8,1.5c-1.1,1.1-1.5,2.5-1.5,4c0,1.5,0.4,2.9,1.4,4s2.4,1.5,3.9,1.5c1.1,0,2.2-0.3,3.1-1
	c0.4-0.3,0.7-0.6,1-1l0.1-0.2h2.9L85,21.9z M91.1,19.3h9.1v-8.5h2.7v14.9h-2.7v-3.9h-9.1v3.9h-2.7V10.8h2.7V19.3z M126.4,16.7h10.3
	c-0.1-1.1-0.6-2.1-1.5-2.8c-1-0.9-2.2-1.2-3.6-1.2c-1.4,0-2.6,0.3-3.6,1.2C127.1,14.6,126.6,15.5,126.4,16.7z M123.6,18.9
	c0-0.2,0-0.5,0-0.7c0-2.2,0.6-4.2,2.2-5.8c1.6-1.6,3.6-2.2,5.8-2.2c2.2,0,4.2,0.6,5.8,2.2s2.2,3.6,2.2,5.8v1h-15.9V18.9z M138.7,22
	c-0.5,1.1-1.2,2.1-2.2,2.8c-1.4,1-3.1,1.4-4.8,1.4c-2.2,0-4.2-0.6-5.8-2.2c-0.6-0.6-1.1-1.3-1.4-2l-0.2-0.5h3l0.1,0.1
	c0.2,0.3,0.4,0.5,0.6,0.7c1,1,2.3,1.3,3.7,1.3c1,0,2.1-0.2,2.9-0.8c0.5-0.3,0.9-0.7,1.2-1.2l0.1-0.2h3L138.7,22z M150.9,12.8
	c-0.1,0-0.3,0-0.4-0.1c-1.3-0.2-2.6,0.1-3.6,0.9c-1.2,0.9-1.7,2.4-1.7,3.9v8.1h-2.7v-8.8c0-2.2,0.9-4.1,2.6-5.4
	c1.7-1.2,3.8-1.6,5.9-1.3l0.3,0v2.7L150.9,12.8z M120.9,25.8h-2.7v-8.1c0-6.7-8.8-6.3-8.8,0v8.1h-2.7V17c0-8.9,14.2-9.2,14.2,0.1
	L120.9,25.8L120.9,25.8z M36.9,10.6h2.7v8.2c0,6.7,8.8,6.3,8.8,0v-8.2H51v8.8c0,8.9-14.2,9.2-14.2-0.1L36.9,10.6L36.9,10.6z"/>
</svg>
